<svg xmlns="http://www.w3.org/2000/svg" width="24" height="24" viewBox="0 0 24 24" style="fill:#fff" xml:space="preserve"><path d="M4.219 23.104a.895.895 0 0 1-.895.896H1.906a.895.895 0 0 1-.895-.896v-1.266a.894.894 0 0 1 .895-.895h1.418a.894.894 0 0 1 .895.895v1.266zm0-5.264a.895.895 0 0 1-.895.896H1.906a.895.895 0 0 1-.895-.896v-1.267a.894.894 0 0 1 .895-.895h1.418a.894.894 0 0 1 .895.895v1.267zm0-5.264a.894.894 0 0 1-.895.895H1.906a.894.894 0 0 1-.895-.895v-1.267a.895.895 0 0 1 .895-.896h1.418a.895.895 0 0 1 .895.896v1.267zm0-5.264a.895.895 0 0 1-.895.896H1.906a.895.895 0 0 1-.895-.896V6.045a.895.895 0 0 1 .895-.896h1.418a.895.895 0 0 1 .895.896v1.267zm6.512 15.793a.895.895 0 0 1-.895.896H8.419a.894.894 0 0 1-.895-.896v-1.268a.894.894 0 0 1 .895-.895h1.417a.894.894 0 0 1 .895.895v1.266zm0-5.264a.895.895 0 0 1-.895.896H8.419a.895.895 0 0 1-.895-.896v-1.267a.894.894 0 0 1 .895-.895h1.417a.894.894 0 0 1 .895.895v1.267zm6.129 5.264a.895.895 0 0 1-.895.896h-1.417a.894.894 0 0 1-.895-.896v-1.268a.894.894 0 0 1 .895-.895h1.417a.894.894 0 0 1 .895.895v1.266zm0-5.264a.895.895 0 0 1-.895.896h-1.417a.894.894 0 0 1-.895-.896v-1.267a.894.894 0 0 1 .895-.895h1.417a.894.894 0 0 1 .895.895v1.267zm0-5.264a.894.894 0 0 1-.895.895h-1.417a.894.894 0 0 1-.895-.895V11.31c0-.495.399-.896.895-.896h1.417a.895.895 0 0 1 .895.896v1.267zm0-5.264a.895.895 0 0 1-.895.896h-1.417a.894.894 0 0 1-.895-.896V6.046c0-.495.399-.896.895-.896h1.417a.895.895 0 0 1 .895.896v1.267zm6.129-5.148a.895.895 0 0 1-.895.896h-1.417a.894.894 0 0 1-.895-.896V.896A.894.894 0 0 1 20.676 0h1.417a.895.895 0 0 1 .895.896v1.267zm0 20.941a.895.895 0 0 1-.895.896h-1.417a.894.894 0 0 1-.895-.896V21.84a.894.894 0 0 1 .895-.895h1.417a.894.894 0 0 1 .895.895v1.266zm0-5.264a.895.895 0 0 1-.895.896h-1.417a.894.894 0 0 1-.895-.896v-1.267a.894.894 0 0 1 .895-.895h1.417a.894.894 0 0 1 .895.895v1.267zm0-5.264a.894.894 0 0 1-.895.895h-1.417a.894.894 0 0 1-.895-.895v-1.267c0-.495.399-.896.895-.896h1.417a.895.895 0 0 1 .895.896v1.267zm0-5.264a.895.895 0 0 1-.895.896h-1.417a.894.894 0 0 1-.895-.896V6.047c0-.495.399-.896.895-.896h1.417a.895.895 0 0 1 .895.896v1.267z"/></svg>